<?xml version="1.0" encoding="utf-8"?>
<!-- Generator: Adobe Illustrator 26.0.3, SVG Export Plug-In . SVG Version: 6.00 Build 0)  -->
<svg version="1.0" id="katman_1" xmlns="http://www.w3.org/2000/svg" xmlns:xlink="http://www.w3.org/1999/xlink" x="0px" y="0px"
	 viewBox="0 0 177 130" style="enable-background:new 0 0 177 130;" xml:space="preserve">
<style type="text/css">
	.st0{fill:#fe8daa;}
</style>
<path class="st0" d="M23.8,75.8c0.5-0.7,0.9-1.3,1.3-1.9c-0.1,0-0.1-0.1-0.2-0.1c-0.6,0.5-1.1,1-1.7,1.6c-1.3,1.1-2.7,2-4.5,1.9
	c-0.6,0-1.1-0.2-1.8-0.3c0.6-0.4,1-0.8,1.5-1.1c4-3.2,8-6.5,11.6-10.2c1.5-1.6,2.9-3.3,4.2-5c0.5-0.6,0.7-1.4,1.1-2.1
	c0.2,0.3,0.4,0.7,0.6,1.2c-0.1-2.8-2-3.9-4.2-4.8c0.7-0.5,1.3-0.8,1.9-1.3c0.2-0.1,0.4-0.3,0.4-0.5c0.4-2.2,1.9-3,3.9-3.3
	c0.7-0.1,1.5-0.2,2.2-0.3c0.4-0.1,0.9-0.3,1.3-0.5c0.4,0.6,0,1.2-0.3,1.8c1.3,1.1,2.3,2.5,2.8,4.1c1.7,5.3,1,10.1-2.9,14.2
	c-0.3,0.3-0.6,0.6-0.9,0.8c-0.4,0.3-0.5,0.6-0.3,1c0.3,0.6,0.5,1.3,0.7,1.9c0,0,0,0.1,0.1,0.2c0.3-0.2,0.5-0.4,0.8-0.7
	c0.3-0.2,0.5-0.5,0.9-0.8c-0.4-0.6-0.9-1.2-1.4-1.9c0.2-0.2,0.4-0.4,0.7-0.6c0.4,0.6,0.8,1.2,1.3,1.9c2.1-1.6,4.2-3.2,6.4-4.8
	c-1.1-0.5-1.8-1.4-1.7-2.7c0-1.1,0.4-2.2,1.3-3.1c0.6,0.9,1.2,1.8,1.7,2.7c0.4,0.7,0.3,1.5-0.1,2.3c0.7-0.3,1.2-0.6,1.9-0.8
	c0.3,0.7-0.1,0.9-0.4,1.2c-0.9,0.7-1.9,1.4-2.9,2.1c-0.1,0.1-0.3,0.2-0.5,0.4c1.1-0.1,1.9,0.2,2.5,0.8c0.6,0.6,1.3,1.2,1.9,1.8
	c-0.6,0.7-2.2,1.1-3.3,0.9c-1.4-0.2-2.1-1.2-2.6-2.5c-1.3,1.1-2.6,2.2-3.8,3.3c-2.3,2.1-4.5,4.3-6.5,6.7c-0.6,0.8-1.3,1.4-2.3,1.6
	c-0.2,0.1-0.5,0-0.7,0c0.1-0.2,0-0.5,0.2-0.7c1.1-1.3,2.2-2.6,3.3-3.9c0.6-0.7,1.3-1.3,1.9-2c0.2-0.2,0.5-0.3,0.9-0.5
	c-0.4-0.9-0.8-1.9-1.3-3c-2.7,1.6-5.6,2.4-8.8,2.3c0.1-0.3,0.2-0.4,0.3-0.7c0.1-0.2,0.1-0.4,0.3-0.8C28.5,73.8,27,76.2,23.8,75.8z"
	/>
<path class="st0" d="M66.8,72.4c-0.9,0-1.8-0.1-2.7-0.3c-0.9-0.2-1.6-0.5-2.3-0.9l0.1-3.5h1.8l0.5,2.9c0.4,0.2,0.7,0.3,1.1,0.4
	c0.4,0.1,0.8,0.1,1.3,0.1c1,0,1.8-0.2,2.3-0.7c0.6-0.5,0.9-1.1,0.9-1.9c0-0.7-0.2-1.3-0.6-1.7c-0.4-0.4-1-0.8-1.9-1.1l-1-0.4
	c-1.3-0.6-2.4-1.2-3.1-2c-0.8-0.8-1.2-1.8-1.2-3.1c0-0.9,0.2-1.8,0.7-2.4c0.5-0.7,1.1-1.2,2-1.6c0.9-0.4,1.9-0.6,3-0.6
	c0.8,0,1.6,0.1,2.3,0.3s1.4,0.5,1.9,0.9l-0.2,3.2h-1.8l-0.5-2.8c-0.6-0.3-1.2-0.4-1.8-0.4c-0.8,0-1.5,0.2-2,0.6
	c-0.6,0.4-0.8,1-0.8,1.8c0,0.7,0.2,1.2,0.6,1.7c0.4,0.4,1,0.8,1.8,1.1l1,0.4c1.6,0.7,2.7,1.4,3.3,2.1c0.7,0.8,1,1.7,1,2.9
	c0,1.4-0.5,2.5-1.6,3.4C70.1,72,68.7,72.4,66.8,72.4z"/>
<path class="st0" d="M80.3,72.3c-1.1,0-2.1-0.2-3-0.7c-0.9-0.5-1.6-1.2-2.1-2.1c-0.5-0.9-0.8-2-0.8-3.3c0-1.3,0.3-2.4,0.8-3.3
	c0.5-0.9,1.3-1.6,2.1-2.1s1.8-0.7,2.9-0.7c1,0,2,0.2,2.9,0.7c0.9,0.5,1.6,1.2,2.1,2.1c0.5,0.9,0.8,2,0.8,3.3c0,1.3-0.3,2.4-0.8,3.3
	c-0.5,0.9-1.2,1.6-2.1,2.1C82.4,72.1,81.4,72.3,80.3,72.3z M80.3,71.2c0.9,0,1.5-0.4,2-1.2c0.5-0.8,0.7-2,0.7-3.7
	c0-3.3-0.9-4.9-2.7-4.9c-1.8,0-2.6,1.6-2.6,4.9c0,1.6,0.2,2.9,0.7,3.7C78.8,70.8,79.4,71.2,80.3,71.2z"/>
<path class="st0" d="M87.8,72v-1l1.6-0.3c0-0.6,0-1.2,0-1.9c0-0.7,0-1.3,0-1.8v-1.3c0-0.7,0-1.2,0-1.6c0-0.4,0-0.8,0-1.3l-1.7-0.2
	v-0.9l4-1.5l0.4,0.2l0.2,1.8c1.2-1.4,2.6-2.1,4.1-2.1c1,0,1.8,0.3,2.4,1c0.6,0.7,0.9,1.8,0.9,3.3V67c0,0.5,0,1.2,0,1.8
	c0,0.7,0,1.3,0,1.9L101,71v1h-5.9v-1l1.5-0.3c0-0.6,0-1.2,0-1.9c0-0.7,0-1.3,0-1.8v-2.3c0-0.9-0.1-1.6-0.4-1.9
	c-0.3-0.4-0.7-0.6-1.3-0.6c-0.8,0-1.7,0.4-2.7,1.2V67c0,0.5,0,1.1,0,1.8c0,0.7,0,1.3,0,1.9l1.4,0.3v1H87.8z"/>
<path class="st0" d="M107.4,66.9c0.7,0,1.2-0.3,1.5-0.8c0.4-0.5,0.5-1.2,0.5-2.1c0-0.8-0.2-1.5-0.5-2c-0.3-0.5-0.8-0.8-1.5-0.8
	c-0.6,0-1.1,0.3-1.5,0.8c-0.4,0.5-0.5,1.2-0.5,2.1c0,0.9,0.2,1.6,0.5,2.1C106.3,66.7,106.8,66.9,107.4,66.9z M104.4,74.2
	c0,0.7,0.3,1.3,0.8,1.6c0.5,0.3,1.3,0.5,2.3,0.5c1.3,0,2.2-0.2,2.9-0.6c0.7-0.4,1-0.9,1-1.5c0-0.4-0.2-0.8-0.5-1.2
	c-0.3-0.3-0.8-0.5-1.6-0.5h-2.7c-0.6,0-1.1,0-1.6-0.1C104.6,73,104.4,73.6,104.4,74.2z M107.5,68c-0.7,0-1.4-0.1-2-0.3
	c-0.3,0.4-0.5,0.9-0.5,1.3c0,0.3,0.1,0.5,0.3,0.7c0.2,0.2,0.6,0.3,1.1,0.3h3c1.6,0,2.7,0.3,3.4,0.9c0.7,0.6,1,1.4,1,2.4
	c0,0.8-0.2,1.5-0.7,2.1c-0.5,0.7-1.2,1.2-2.2,1.6c-0.9,0.4-2.1,0.6-3.6,0.6c-1.2,0-2.2-0.1-3-0.4c-0.7-0.3-1.3-0.6-1.6-1
	c-0.3-0.4-0.5-0.9-0.5-1.4c0-0.5,0.2-1,0.5-1.4c0.3-0.4,0.9-0.8,1.7-1.2c-0.5-0.2-0.9-0.4-1.1-0.7c-0.2-0.3-0.4-0.7-0.4-1.2
	c0-0.5,0.1-0.9,0.4-1.4c0.3-0.5,0.7-1,1.3-1.5c-1.3-0.6-1.9-1.7-1.9-3.3c0-1.2,0.4-2.1,1.2-2.8c0.8-0.7,2-1.1,3.4-1.1s2.6,0.3,3.4,1
	l2.7-1l0.4,0.2v1.7h-2.3c0.3,0.5,0.5,1.2,0.5,2c0,1.2-0.4,2.1-1.2,2.8C110.1,67.6,109,68,107.5,68z"/>
<path class="st0" d="M114.9,72v-1l1.6-0.3c0-0.6,0-1.2,0-1.9c0-0.7,0-1.3,0-1.8V56.6l-1.8-0.2v-0.9l4.3-1.1l0.4,0.2l-0.1,3.4v3.9
	c1.1-1.1,2.3-1.7,3.6-1.7c0.9,0,1.6,0.2,2.4,0.7c0.7,0.5,1.3,1.1,1.7,2c0.4,0.9,0.6,2,0.6,3.2c0,1.3-0.2,2.4-0.7,3.3
	c-0.4,0.9-1,1.6-1.8,2.2c-0.8,0.5-1.6,0.7-2.5,0.7c-0.6,0-1.2-0.1-1.8-0.4c-0.5-0.2-1-0.6-1.5-1.2l-0.3,1.5L114.9,72z M121.8,61.9
	c-0.4,0-0.8,0.1-1.2,0.3c-0.4,0.2-0.8,0.5-1.2,0.8v6.6c0.7,0.7,1.5,1,2.3,1c0.8,0,1.4-0.4,2-1.1c0.5-0.7,0.8-1.8,0.8-3.3
	c0-1.5-0.3-2.6-0.8-3.3C123.2,62.2,122.6,61.9,121.8,61.9z"/>
<path class="st0" d="M129.2,72v-1l1.6-0.3c0-0.6,0-1.2,0-1.9c0-0.7,0-1.3,0-1.8v-1.1c0-0.7,0-1.2,0-1.6c0-0.4,0-0.9,0-1.4l-1.7-0.2
	v-0.9l4.3-1.5l0.4,0.2l-0.1,3.4V67c0,0.5,0,1.1,0,1.8c0,0.7,0,1.3,0,1.9l1.5,0.3v1H129.2z M132.3,57.9c-0.5,0-0.9-0.2-1.3-0.5
	c-0.4-0.3-0.5-0.7-0.5-1.2c0-0.5,0.2-0.9,0.5-1.2c0.4-0.3,0.8-0.5,1.3-0.5c0.5,0,0.9,0.2,1.3,0.5c0.4,0.3,0.5,0.7,0.5,1.2
	c0,0.5-0.2,0.9-0.5,1.2C133.2,57.8,132.8,57.9,132.3,57.9z"/>
<path class="st0" d="M136.7,72v-1l1.5-0.3c0-0.6,0-1.3,0-1.9c0-0.7,0-1.3,0-1.8v-1.3c0-0.7,0-1.2,0-1.6c0-0.4,0-0.8,0-1.3l-1.7-0.2
	v-0.9l4-1.5l0.4,0.2l0.2,2.8c0.4-1,0.9-1.8,1.5-2.3s1.2-0.8,1.9-0.8c0.4,0,0.8,0.1,1.2,0.3c0.4,0.2,0.6,0.5,0.7,1
	c0,0.6-0.2,1.1-0.4,1.4c-0.3,0.3-0.6,0.5-1.1,0.5c-0.6,0-1.1-0.3-1.6-0.9l-0.2-0.2c-0.8,0.7-1.5,1.7-1.8,3V67c0,0.5,0,1.1,0,1.8
	c0,0.7,0,1.3,0,1.9l2,0.4v1H136.7z"/>
<path class="st0" d="M150.1,66.3c0,1.5,0.3,2.5,0.8,3.3c0.6,0.7,1.3,1.1,2.1,1.1c0.4,0,0.8-0.1,1.1-0.2c0.4-0.2,0.7-0.4,1-0.7v-6.9
	c-0.7-0.6-1.4-0.9-2.1-0.9c-0.8,0-1.5,0.4-2.1,1.1C150.4,63.6,150.1,64.8,150.1,66.3z M155.4,72.3l-0.2-1.5
	c-0.4,0.5-0.9,0.9-1.5,1.2c-0.5,0.3-1.2,0.4-1.9,0.4c-0.9,0-1.8-0.2-2.5-0.7c-0.7-0.5-1.3-1.2-1.7-2.1c-0.4-0.9-0.6-2-0.6-3.2
	c0-1.3,0.2-2.4,0.7-3.3c0.5-0.9,1.1-1.6,1.9-2.1c0.8-0.5,1.7-0.8,2.6-0.8c0.6,0,1.2,0.1,1.6,0.3c0.5,0.2,1,0.6,1.4,1.1v-4.9
	l-1.9-0.2v-0.9l4.4-1.1l0.4,0.2l-0.1,3.4v12.7l1.6,0.3v1L155.4,72.3z"/>
</svg>
