<svg width="615" height="602" viewBox="0 0 615 602" fill="none" xmlns="http://www.w3.org/2000/svg">
<path d="M212.925 358.112L0 601.677L101.018 489.132L109.873 480.548C139.616 451.715 179.321 435.444 220.745 435.114L331.001 434.238C418.211 433.544 502.704 403.815 571.134 349.747L615 315.087L311.747 313.546C273.899 313.353 237.835 329.617 212.925 358.112Z" fill="url(#paint0_linear_1_3)"/>
<path d="M357.359 315.001L303.16 314.725C272.422 314.569 246.429 333.305 221.475 351.292L220.829 351.758C199.414 367.192 253.797 322.702 260.804 297.253C266.996 274.762 264.078 248.468 270.029 225.913C276.554 201.178 292.259 186.866 312.464 171.178C331.558 156.351 349.229 163.365 367.199 147.193C447.149 75.2375 524.024 0.82251 524.024 0.82251C524.024 0.82251 402.254 139.198 372.119 179.173C351.719 206.233 365.354 290.488 357.359 315.001Z" fill="url(#paint1_linear_1_3)"/>
<path d="M101.018 489.132L109.873 480.548C139.616 451.714 179.321 435.444 220.745 435.114L301.35 434.473C301.35 434.473 266.295 478.677 210.33 505.122C165.061 526.513 135.094 522.326 91.02 538.947C50.1125 554.375 0 601.677 0 601.677L101.018 489.132Z" fill="url(#paint2_linear_1_3)"/>
<circle cx="320.415" cy="208.692" r="9.84" fill="white"/>
<defs>
<linearGradient id="paint0_linear_1_3" x1="615.615" y1="313.242" x2="99.015" y2="457.152" gradientUnits="userSpaceOnUse">
<stop stop-color="#FED5A8"/>
<stop offset="0.854167" stop-color="#FF9521"/>
</linearGradient>
<linearGradient id="paint1_linear_1_3" x1="524.595" y1="-10.8625" x2="215.865" y2="355.063" gradientUnits="userSpaceOnUse">
<stop stop-color="#472967"/>
<stop offset="0.533051" stop-color="#563081"/>
<stop offset="1" stop-color="#92435C"/>
</linearGradient>
<linearGradient id="paint2_linear_1_3" x1="301.965" y1="435.012" x2="0.61501" y2="591.223" gradientUnits="userSpaceOnUse">
<stop stop-color="#A04755"/>
<stop offset="0.395833" stop-color="#EC6324"/>
<stop offset="0.90625" stop-color="#F9DB42"/>
</linearGradient>
</defs>
</svg>
